HIERARCHY
ROOT Hips
{
	OFFSET 0.000000 0.000000 0.000000
	CHANNELS 6 Xposition Yposition Zposition Zrotation Yrotation Xrotation 
	JOINT LHipJoint
	{
		OFFSET 0.000000 0.000000 0.000000
		CHANNELS 3 Zrotation Yrotation Xrotation
		JOINT LeftUpLeg
		{
			OFFSET 1.363060 -1.794630 0.839290
			CHANNELS 3 Zrotation Yrotation Xrotation
			JOINT LeftLeg
			{
				OFFSET 2.448110 -6.726130 0.000000
				CHANNELS 3 Zrotation Yrotation Xrotation
				JOINT LeftFoot
				{
					OFFSET 2.562200 -7.039590 0.000000
					CHANNELS 3 Zrotation Yrotation Xrotation
					JOINT LeftToeBase
					{
						OFFSET 0.157640 -0.433110 2.322550
						CHANNELS 3 Zrotation Yrotation Xrotation
						End Site
						{
							OFFSET 0.000000 0.000000 0.000000
						}
					}
				}
			}
		}
	}
	JOINT RHipJoint
	{
		OFFSET 0.000000 0.000000 0.000000
		CHANNELS 3 Zrotation Yrotation Xrotation
		JOINT RightUpLeg
		{
			OFFSET -1.305520 -1.794630 0.839290
			CHANNELS 3 Zrotation Yrotation Xrotation
			JOINT RightLeg
			{
				OFFSET -2.542530 -6.985550 0.000000
				CHANNELS 3 Zrotation Yrotation Xrotation
				JOINT RightFoot
				{
					OFFSET -2.568260 -7.056230 0.000000
					CHANNELS 3 Zrotation Yrotation Xrotation
					JOINT RightToeBase
					{
						OFFSET -0.164730 -0.452590 2.363150
						CHANNELS 3 Zrotation Yrotation Xrotation
						End Site
						{
							OFFSET 0.000000 0.000000 0.000000
						}
					}
				}
			}
		}
	}
	JOINT LowerBack
	{
		OFFSET 0.000000 0.000000 0.000000
		CHANNELS 3 Zrotation Yrotation Xrotation
		JOINT Spine
		{
			OFFSET 0.028270 2.035590 -0.193380
			CHANNELS 3 Zrotation Yrotation Xrotation
			JOINT Spine1
			{
				OFFSET 0.056720 2.048850 -0.042750
				CHANNELS 3 Zrotation Yrotation Xrotation
				JOINT Neck
				{
					OFFSET 0.000000 0.000000 0.000000
					CHANNELS 3 Zrotation Yrotation Xrotation
					JOINT Neck1
					{
						OFFSET -0.054170 1.746240 0.172020
						CHANNELS 3 Zrotation Yrotation Xrotation
						JOINT Head
						{
							OFFSET 0.104070 1.761360 -0.123970
							CHANNELS 3 Zrotation Yrotation Xrotation
							End Site
							{
								OFFSET 0.000000 0.000000 0.000000
							}
						}
					}
				}
				JOINT LeftShoulder
				{
					OFFSET 0.000000 0.000000 0.000000
					CHANNELS 3 Zrotation Yrotation Xrotation
					JOINT LeftArm
					{
						OFFSET 3.362410 1.200890 -0.311210
						CHANNELS 3 Zrotation Yrotation Xrotation
						JOINT LeftForeArm
						{
							OFFSET 4.983000 -0.000000 -0.000000
							CHANNELS 3 Zrotation Yrotation Xrotation
							JOINT LeftHand
							{
								OFFSET 3.483560 -0.000000 -0.000000
								CHANNELS 3 Zrotation Yrotation Xrotation
								JOINT LeftFingerBase
								{
									OFFSET 0.000000 0.000000 0.000000
									CHANNELS 3 Zrotation Yrotation Xrotation
									JOINT LeftHandIndex1
									{
										OFFSET 0.715260 -0.000000 -0.000000
										CHANNELS 3 Zrotation Yrotation Xrotation
										End Site
										{
											OFFSET 0.000000 0.000000 0.000000
										}
									}
								}
								JOINT LThumb
								{
									OFFSET 0.000000 0.000000 0.000000
									CHANNELS 3 Zrotation Yrotation Xrotation
									End Site
									{
										OFFSET 0.000000 0.000000 0.000000
									}
								}
							}
						}
					}
				}
				JOINT RightShoulder
				{
					OFFSET 0.000000 0.000000 0.000000
					CHANNELS 3 Zrotation Yrotation Xrotation
					JOINT RightArm
					{
						OFFSET -3.136600 1.374050 -0.404650
						CHANNELS 3 Zrotation Yrotation Xrotation
						JOINT RightForeArm
						{
							OFFSET -5.241900 -0.000000 -0.000000
							CHANNELS 3 Zrotation Yrotation Xrotation
							JOINT RightHand
							{
								OFFSET -3.444170 -0.000000 -0.000000
								CHANNELS 3 Zrotation Yrotation Xrotation
								JOINT RightFingerBase
								{
									OFFSET 0.000000 0.000000 0.000000
									CHANNELS 3 Zrotation Yrotation Xrotation
									JOINT RightHandIndex1
									{
										OFFSET -0.622530 -0.000000 -0.000000
										CHANNELS 3 Zrotation Yrotation Xrotation
										End Site
										{
											OFFSET 0.000000 0.000000 0.000000
										}
									}
								}
								JOINT RThumb
								{
									OFFSET 0.000000 0.000000 0.000000
									CHANNELS 3 Zrotation Yrotation Xrotation
									End Site
									{
										OFFSET 0.000000 0.000000 0.000000
									}
								}
							}
						}
					}
				}
			}
		}
	}
}
MOTION
Frames: 7
Frame Time: 0.008333
5.265812 17.398928 0.578639 1.941817 -78.162027 7.721207 -10.935683 1.684348 1.869189 -5.690649 9.654579 -13.285802 -2.518078 -1.385213 -2.188875 0.036341 1.832798 4.981152 0.710600 0.000000 -31.480700 9.476740 -2.664440 1.876195 7.575829 -6.523743 -7.766404 2.099344 1.488316 -2.957891 -1.327898 -10.659087 -2.214617 -2.478700 0.000000 -27.493600 -4.064590 1.909831 -4.447400 -1.275538 2.227732 -5.695634 -3.022952 2.244441 -8.512977 4.000760 10.487981 5.823613 -1.015450 -0.303767 3.759474 0.000000 0.000000 0.000000 0.908356 -6.300111 -9.736849 -112.085708 -67.288781 40.102705 174.845897 -62.787169 179.470170 25.728028 -23.113193 -5.775332 -0.188873 1.518406 -0.000000 0.000000 0.000000 0.000000 0.000000 0.000000 0.000000 -1.085488 15.898172 2.929066 79.563944 38.036341 20.446644 1.184167 27.263478 0.022327 10.200643 -13.470142 -1.214539 -0.078736 -0.021378 0.000000 0.000000 0.000000 0.000000 0.000000 0.000000 0.000000 
5.259764 17.387716 0.581138 1.283898 -77.779377 8.234883 -10.935328 1.701054 1.891051 -5.492080 9.521078 -13.065859 -2.506233 -1.375603 -2.341628 0.011264 1.535370 4.911228 0.644600 -0.000000 -31.821400 9.463753 -2.637257 1.803665 7.718746 -6.592547 -7.451336 2.082483 1.504244 -2.954153 -1.397665 -11.056430 -2.433945 -2.504800 -0.000000 -27.493000 -3.896393 1.723066 -4.382441 -1.354840 2.007838 -5.686965 -3.588412 2.008014 -8.518520 5.031918 9.601091 5.813830 -1.426732 -0.323341 3.744211 0.000000 0.000000 0.000000 1.697655 -6.336900 -9.415344 -110.107328 -67.857820 38.741840 174.938496 -62.636190 179.467478 26.146468 -22.980884 -5.843702 -0.210092 1.520894 -0.000000 0.000000 0.000000 0.000000 0.000000 0.000000 0.000000 1.598546 14.896851 2.780549 79.494273 35.622208 22.023479 0.945668 31.860120 0.032751 10.340516 -11.749582 -1.072370 -0.110600 -0.055721 -0.000000 0.000000 0.000000 0.000000 0.000000 0.000000 0.000000 
5.254314 17.378199 0.583574 0.727318 -77.490028 8.687351 -10.939369 1.717358 1.909963 -5.316987 9.419753 -12.891491 -2.495792 -1.366483 -2.492275 -0.009727 1.277687 4.858469 0.588300 -0.000000 -32.124300 9.447289 -2.609257 1.744269 7.851566 -6.638102 -7.184104 2.071170 1.525135 -2.998386 -1.465770 -11.385683 -2.585567 -2.519200 -0.000000 -27.495600 -3.709968 1.540281 -4.331832 -1.413984 1.793687 -5.662924 -4.077994 1.782184 -8.462281 5.864142 8.637718 5.696348 -1.784598 -0.338717 3.701566 0.000000 0.000000 0.000000 2.426225 -6.278341 -9.106977 -107.997731 -68.476467 37.208705 175.007948 -62.423399 179.463655 26.703118 -22.818013 -5.934805 -0.234536 1.520870 -0.000000 0.000000 0.000000 0.000000 0.000000 0.000000 0.000000 3.807822 13.803022 2.629132 79.580345 33.555721 23.356782 0.739015 36.278978 0.041256 10.680441 -10.740339 -1.011730 -0.140683 -0.079767 0.000000 0.000000 0.000000 0.000000 0.000000 0.000000 0.000000 
5.249055 17.370740 0.585878 0.264579 -77.292946 9.089759 -10.946680 1.733682 1.927228 -5.169851 9.353179 -12.767368 -2.487587 -1.358552 -2.638894 -0.026937 1.060953 4.827186 0.541700 -0.000000 -32.380600 9.429039 -2.582144 1.700104 7.971590 -6.664720 -6.975530 2.065763 1.549636 -3.078956 -1.528441 -11.639979 -2.672204 -2.524200 0.000000 -27.501900 -3.517340 1.364993 -4.299988 -1.455351 1.589660 -5.627707 -4.490823 1.571225 -8.357157 6.516884 7.645312 5.492140 -2.081001 -0.350022 3.637522 0.000000 0.000000 0.000000 3.089717 -6.136649 -8.812657 -105.831941 -69.111561 35.558490 175.055187 -62.168255 179.459055 27.343890 -22.634299 -6.037933 -0.260252 1.518780 -0.000000 0.000000 0.000000 0.000000 0.000000 0.000000 0.000000 5.535711 12.687176 2.467253 79.836868 31.752609 24.459547 0.559419 40.542963 0.048891 11.149194 -10.386931 -1.021618 -0.168595 -0.094439 0.000000 0.000000 0.000000 0.000000 0.000000 0.000000 0.000000 
5.243771 17.365535 0.588010 -0.111521 -77.185140 9.448157 -10.956286 1.750724 1.943330 -5.053418 9.323821 -12.693903 -2.482163 -1.351951 -2.778634 -0.040685 0.883956 4.818737 0.504400 -0.000001 -32.584900 9.410385 -2.556602 1.671589 8.076530 -6.675726 -6.831462 2.066130 1.576293 -3.181610 -1.581909 -11.817624 -2.700913 -2.522700 0.000000 -27.512200 -3.329345 1.197370 -4.287975 -1.482352 1.396439 -5.584957 -4.832623 1.375289 -8.216392 7.022501 6.646566 5.225678 -2.316485 -0.357718 3.558713 0.000000 0.000000 0.000000 3.691251 -5.922171 -8.537055 -103.694097 -69.734110 33.859706 175.083021 -61.892980 179.454072 28.014789 -22.441777 -6.142982 -0.285505 1.515252 -0.000000 0.000000 0.000000 0.000000 0.000000 0.000000 0.000000 6.825803 11.581068 2.289578 80.251360 30.175147 25.398237 0.400695 44.653927 0.056253 11.650840 -10.509577 -1.081434 -0.194283 -0.102328 0.000000 0.000000 0.000000 0.000000 0.000000 0.000000 0.000000 
5.238535 17.362562 0.590007 -0.409796 -77.162351 9.765069 -10.967445 1.769201 1.958262 -4.968979 9.333051 -12.667944 -2.479766 -1.346471 -2.909031 -0.051297 0.743671 4.831915 0.475300 -0.000000 -32.734700 9.392287 -2.532512 1.657768 8.164154 -6.673526 -6.752660 2.071714 1.603622 -3.290766 -1.623003 -11.921451 -2.682654 -2.517600 -0.000000 -27.527100 -3.152478 1.035602 -4.294633 -1.497329 1.212386 -5.539721 -5.109851 1.191942 -8.060639 7.417027 5.702672 4.931922 -2.491944 -0.362313 3.474457 0.000000 0.000000 0.000000 4.231745 -5.646282 -8.280562 -101.652924 -70.319090 32.169517 175.094423 -61.616360 179.449082 28.665943 -22.251222 -6.241339 -0.308724 1.510870 -0.000000 0.000000 0.000000 0.000000 0.000000 0.000000 0.000000 7.729391 10.548906 2.090935 80.794532 28.752362 26.130284 0.254111 48.668809 0.063771 12.130495 -10.938793 -1.174072 -0.218566 -0.106036 0.000000 0.000000 0.000000 0.000000 0.000000 0.000000 0.000000 
5.233361 17.361587 0.591913 -0.637830 -77.219310 10.042217 -10.979717 1.789762 1.971484 -4.915297 9.380610 -12.682352 -2.480307 -1.341702 -3.027914 -0.059005 0.636537 4.862845 0.453300 -0.000000 -32.831301 9.375233 -2.509471 1.656614 8.233528 -6.659159 -6.734678 2.081684 1.630217 -3.391983 -1.649017 -11.957738 -2.629730 -2.511300 0.000000 -27.547800 -2.990542 0.876967 -4.316609 -1.503565 1.034543 -5.493616 -5.335136 1.017417 -7.898369 7.735497 4.806821 4.633608 -2.617611 -0.364562 3.390657 0.000000 0.000000 0.000000 4.720135 -5.318038 -8.051156 -99.776449 -70.854423 30.553056 175.094744 -61.356253 179.444423 29.258418 -22.074493 -6.327795 -0.328978 1.506313 -0.000000 0.000000 0.000000 0.000000 0.000000 0.000000 0.000000 8.329978 9.576346 1.870722 81.424662 27.514172 26.749135 0.119423 52.574110 0.071325 12.506216 -11.409907 -1.264923 -0.241672 -0.109299 0.000000 0.000000 0.000000 0.000000 0.000000 0.000000 0.000000 
